<?xml version="1.0" encoding="UTF-8"?> <svg xmlns="http://www.w3.org/2000/svg" width="769" height="360" viewBox="0 0 769 360" fill="none"><path d="M91.9221 0.773438C120.065 0.773438 141.517 5.26941 156.277 14.2614C170.998 5.69141 192.095 1.40643 219.569 1.40643C236.215 1.40643 251.844 3.16444 266.455 6.67844C281.066 10.0074 292.256 13.7984 300.023 18.0524V59.1104C291.516 54.6724 280.233 50.6964 266.177 47.1824C252.121 43.4834 237.972 41.6334 223.731 41.6334C207.641 41.6334 196.45 43.2984 190.162 46.6274C183.874 49.7714 180.73 54.1184 180.73 59.6664L180.694 59.6654C180.697 59.9164 180.698 60.1684 180.698 60.4204V126.687H130.761V85.6664C127.062 87.7004 122.068 89.4574 115.78 90.9374C109.677 92.4164 100.336 93.3414 87.7601 93.7114C63.7171 94.4514 51.6961 101.386 51.6951 114.518C51.6951 119.425 53.5531 123.482 57.2701 126.687H0.513092C0.418092 125.43 0.371094 124.148 0.371094 122.841C0.371094 107.305 6.56709 95.2834 18.9591 86.7754C31.3511 78.0834 51.5101 73.4594 79.4381 72.9044C93.8641 72.7194 104.776 71.9794 112.174 70.6854C119.756 69.3904 124.75 67.8184 127.154 65.9694C129.559 64.1194 130.761 61.8074 130.761 59.0334C130.761 53.4854 127.617 49.1384 121.329 45.9944C115.041 42.6654 103.85 41.0004 87.7601 41.0004C73.5191 41.0004 59.3701 42.8504 45.3141 46.5494C31.2581 50.0634 19.9751 54.0394 11.4681 58.4784V17.4194C19.2361 13.1654 30.4251 9.37444 45.0361 6.04544C59.6471 2.53144 75.2761 0.773438 91.9221 0.773438Z" fill="black"></path><path d="M220.956 66.0469C231.221 66.0469 239.542 74.3679 239.542 84.6329C239.542 94.8979 231.221 103.219 220.956 103.22C210.691 103.22 202.369 94.8979 202.369 84.6329C202.369 74.3679 210.691 66.0469 220.956 66.0469Z" fill="black"></path><path d="M750.507 343.801C746.302 343.801 742.676 342.873 739.626 341.017C736.596 339.142 734.257 336.528 732.609 333.176C730.98 329.805 730.166 325.883 730.166 321.414C730.166 316.944 730.98 313.005 732.609 309.596C734.257 306.168 736.549 303.498 739.484 301.585C742.439 299.653 745.886 298.688 749.825 298.688C752.098 298.688 754.342 299.065 756.558 299.823C758.774 300.58 760.791 301.812 762.609 303.517C764.427 305.203 765.876 307.436 766.956 310.221C768.035 313.005 768.575 316.433 768.575 320.505V323.346H734.939V317.551H761.757C761.757 315.089 761.265 312.892 760.28 310.96C759.314 309.028 757.931 307.503 756.132 306.385C754.352 305.268 752.249 304.71 749.825 304.71C747.155 304.71 744.844 305.372 742.893 306.698C740.961 308.005 739.475 309.71 738.433 311.812C737.391 313.915 736.871 316.168 736.871 318.573V322.438C736.871 325.733 737.439 328.527 738.575 330.818C739.73 333.091 741.331 334.824 743.376 336.017C745.422 337.191 747.799 337.778 750.507 337.778C752.268 337.778 753.859 337.531 755.28 337.039C756.719 336.527 757.96 335.771 759.001 334.767C760.043 333.744 760.848 332.475 761.416 330.96L767.893 332.778C767.211 334.975 766.066 336.906 764.456 338.573C762.846 340.221 760.857 341.508 758.49 342.438C756.123 343.346 753.462 343.801 750.507 343.801Z" fill="black"></path><path d="M719.931 284.707V342.889H713.227V284.707H719.931Z" fill="black"></path><path d="M686.267 343.801C682.176 343.801 678.653 342.835 675.699 340.903C672.744 338.972 670.471 336.31 668.881 332.919C667.29 329.529 666.494 325.657 666.494 321.301C666.494 316.869 667.309 312.958 668.937 309.568C670.585 306.159 672.877 303.498 675.812 301.585C678.767 299.653 682.214 298.688 686.153 298.688C689.221 298.688 691.987 299.256 694.449 300.392C696.911 301.528 698.928 303.118 700.5 305.164C702.072 307.209 703.047 309.596 703.426 312.323H696.721C696.21 310.334 695.074 308.573 693.312 307.039C691.57 305.486 689.221 304.71 686.267 304.71C683.653 304.71 681.362 305.391 679.392 306.755C677.441 308.099 675.917 310.004 674.818 312.466C673.739 314.909 673.199 317.777 673.199 321.073C673.199 324.444 673.729 327.38 674.79 329.88C675.869 332.38 677.384 334.322 679.335 335.705C681.305 337.087 683.615 337.778 686.267 337.778C688.009 337.778 689.591 337.475 691.011 336.869C692.432 336.263 693.634 335.391 694.619 334.255C695.604 333.118 696.305 331.755 696.721 330.164H703.426C703.047 332.74 702.11 335.061 700.613 337.125C699.136 339.17 697.176 340.798 694.733 342.01C692.309 343.204 689.487 343.801 686.267 343.801Z" fill="black"></path><path d="M649.555 342.891V299.254H656.26V342.891H649.555ZM652.964 291.982C651.657 291.982 650.53 291.536 649.583 290.646C648.655 289.756 648.191 288.686 648.191 287.436C648.191 286.186 648.655 285.116 649.583 284.226C650.53 283.336 651.657 282.891 652.964 282.891C654.271 282.891 655.388 283.336 656.316 284.226C657.263 285.116 657.737 286.186 657.737 287.436C657.737 288.686 657.263 289.756 656.316 290.646C655.388 291.536 654.271 291.982 652.964 291.982Z" fill="black"></path><path d="M637.275 284.707V342.889H630.57V284.707H637.275Z" fill="black"></path><path d="M618.29 284.707V342.889H611.586V284.707H618.29Z" fill="black"></path><path d="M581.579 343.801C577.64 343.801 574.184 342.864 571.21 340.989C568.256 339.114 565.945 336.491 564.278 333.119C562.631 329.748 561.807 325.809 561.807 321.301C561.807 316.756 562.631 312.788 564.278 309.398C565.945 306.008 568.256 303.375 571.21 301.5C574.184 299.625 577.64 298.688 581.579 298.688C585.519 298.688 588.966 299.625 591.92 301.5C594.894 303.375 597.204 306.008 598.852 309.398C600.519 312.788 601.352 316.756 601.352 321.301C601.352 325.809 600.519 329.748 598.852 333.119C597.204 336.491 594.894 339.114 591.92 340.989C588.966 342.864 585.519 343.801 581.579 343.801ZM581.579 337.778C584.572 337.778 587.034 337.011 588.966 335.477C590.898 333.943 592.328 331.926 593.256 329.426C594.184 326.926 594.648 324.218 594.648 321.301C594.648 318.384 594.184 315.667 593.256 313.148C592.328 310.629 590.898 308.592 588.966 307.039C587.034 305.486 584.572 304.71 581.579 304.71C578.587 304.71 576.125 305.486 574.193 307.039C572.261 308.592 570.831 310.629 569.903 313.148C568.975 315.667 568.511 318.384 568.511 321.301C568.511 324.218 568.975 326.926 569.903 329.426C570.831 331.926 572.261 333.943 574.193 335.477C576.125 337.011 578.587 337.778 581.579 337.778Z" fill="black"></path><path d="M556.25 299.253V304.935H532.729V299.253H556.25ZM539.773 342.891V293.23C539.773 290.73 540.36 288.647 541.534 286.98C542.709 285.314 544.234 284.064 546.109 283.23C547.984 282.397 549.963 281.98 552.047 281.98C553.694 281.98 555.039 282.113 556.081 282.378C557.122 282.643 557.898 282.89 558.409 283.117L556.479 288.912C556.138 288.799 555.663 288.658 555.057 288.487C554.47 288.317 553.694 288.23 552.729 288.23C550.513 288.23 548.912 288.789 547.927 289.907C546.961 291.024 546.479 292.662 546.479 294.821V342.891H539.773Z" fill="black"></path><path d="M504.235 299.255V304.937H481.621V299.255H504.235ZM488.212 288.801H494.917V330.392C494.917 332.286 495.191 333.706 495.74 334.653C496.309 335.581 497.028 336.206 497.9 336.528C498.79 336.831 499.727 336.983 500.712 336.983C501.451 336.983 502.057 336.945 502.53 336.869C503.004 336.774 503.382 336.699 503.667 336.642L505.03 342.664C504.576 342.835 503.941 343.005 503.127 343.176C502.312 343.365 501.28 343.46 500.03 343.46C498.136 343.46 496.28 343.053 494.462 342.238C492.663 341.424 491.167 340.183 489.973 338.517C488.799 336.85 488.212 334.748 488.212 332.21V288.801Z" fill="black"></path><path d="M452.758 342.892V299.256H459.235V305.847H459.69C460.485 303.688 461.924 301.936 464.008 300.591C466.091 299.247 468.44 298.574 471.053 298.574C471.546 298.574 472.161 298.584 472.9 298.603C473.639 298.622 474.197 298.65 474.576 298.688V305.506C474.349 305.449 473.828 305.364 473.014 305.25C472.218 305.118 471.375 305.051 470.485 305.051C468.364 305.051 466.47 305.497 464.803 306.387C463.156 307.258 461.849 308.47 460.883 310.023C459.936 311.557 459.462 313.309 459.462 315.279V342.892H452.758Z" fill="black"></path><path d="M420.521 343.914C417.756 343.914 415.246 343.394 412.993 342.352C410.739 341.292 408.949 339.767 407.623 337.778C406.298 335.771 405.635 333.346 405.635 330.505C405.635 328.005 406.127 325.979 407.112 324.426C408.097 322.854 409.413 321.622 411.061 320.732C412.709 319.842 414.527 319.18 416.515 318.744C418.523 318.29 420.54 317.929 422.567 317.664C425.218 317.323 427.368 317.068 429.015 316.898C430.682 316.708 431.894 316.396 432.652 315.96C433.428 315.525 433.817 314.766 433.817 313.688V313.46C433.817 310.657 433.05 308.479 431.515 306.926C430 305.373 427.699 304.596 424.612 304.596C421.411 304.596 418.902 305.296 417.084 306.698C415.265 308.099 413.987 309.597 413.248 311.188L406.885 308.914C408.021 306.262 409.536 304.198 411.43 302.721C413.343 301.224 415.426 300.183 417.68 299.596C419.953 298.99 422.188 298.688 424.385 298.688C425.786 298.688 427.396 298.857 429.214 299.198C431.051 299.52 432.822 300.193 434.527 301.216C436.25 302.239 437.68 303.781 438.817 305.846C439.953 307.91 440.521 310.676 440.521 314.142V342.892H433.817V336.982H433.476C433.021 337.929 432.264 338.943 431.203 340.023C430.142 341.102 428.731 342.021 426.97 342.778C425.209 343.536 423.059 343.914 420.521 343.914ZM421.544 337.892C424.195 337.892 426.43 337.371 428.248 336.33C430.086 335.288 431.468 333.942 432.396 332.294C433.343 330.647 433.817 328.914 433.817 327.096V320.96C433.532 321.301 432.907 321.614 431.942 321.898C430.995 322.163 429.896 322.399 428.646 322.607C427.415 322.796 426.212 322.968 425.038 323.119C423.883 323.252 422.945 323.366 422.226 323.46C420.483 323.687 418.854 324.057 417.339 324.568C415.843 325.061 414.631 325.809 413.703 326.812C412.794 327.797 412.339 329.141 412.339 330.846C412.339 333.175 413.201 334.936 414.925 336.13C416.667 337.304 418.873 337.892 421.544 337.892Z" fill="black"></path><path d="M375.094 299.255V304.937H352.48V299.255H375.094ZM359.071 288.801H365.776V330.392C365.776 332.286 366.051 333.706 366.6 334.653C367.168 335.581 367.888 336.206 368.759 336.528C369.649 336.831 370.587 336.983 371.571 336.983C372.31 336.983 372.917 336.945 373.391 336.869C373.864 336.774 374.242 336.699 374.526 336.642L375.891 342.664C375.436 342.835 374.802 343.005 373.987 343.176C373.173 343.365 372.141 343.46 370.891 343.46C368.997 343.46 367.14 343.053 365.321 342.238C363.522 341.424 362.026 340.183 360.833 338.517C359.658 336.85 359.071 334.748 359.071 332.21V288.801Z" fill="black"></path><path d="M316.025 316.642V342.892H309.32V299.255H315.798V306.073H316.366C317.389 303.857 318.942 302.077 321.025 300.732C323.108 299.368 325.798 298.688 329.093 298.688C332.048 298.688 334.633 299.293 336.849 300.505C339.065 301.698 340.788 303.517 342.019 305.96C343.25 308.384 343.866 311.452 343.866 315.164V342.892H337.161V315.619C337.161 312.191 336.271 309.52 334.491 307.607C332.71 305.675 330.267 304.71 327.161 304.71C325.021 304.71 323.108 305.174 321.423 306.102C319.756 307.03 318.44 308.383 317.474 310.164C316.508 311.944 316.025 314.104 316.025 316.642Z" fill="black"></path><path d="M277.084 343.914C274.318 343.914 271.809 343.394 269.555 342.352C267.301 341.292 265.512 339.767 264.186 337.778C262.86 335.771 262.197 333.346 262.197 330.505C262.197 328.005 262.69 325.979 263.675 324.426C264.659 322.854 265.976 321.622 267.623 320.732C269.271 319.842 271.089 319.18 273.078 318.744C275.086 318.29 277.103 317.929 279.129 317.664C281.781 317.323 283.93 317.068 285.578 316.898C287.245 316.708 288.457 316.396 289.214 315.96C289.991 315.525 290.379 314.766 290.379 313.688V313.46C290.379 310.657 289.612 308.479 288.078 306.926C286.563 305.373 284.262 304.596 281.175 304.596C277.974 304.596 275.464 305.296 273.646 306.698C271.828 308.099 270.55 309.597 269.811 311.188L263.447 308.914C264.584 306.262 266.099 304.198 267.993 302.721C269.906 301.224 271.989 300.183 274.243 299.596C276.515 298.99 278.75 298.688 280.947 298.688C282.349 298.688 283.959 298.857 285.777 299.198C287.614 299.52 289.385 300.193 291.089 301.216C292.813 302.239 294.243 303.781 295.379 305.846C296.515 307.91 297.084 310.676 297.084 314.142V342.892H290.379V336.982H290.038C289.584 337.929 288.826 338.943 287.765 340.023C286.705 341.102 285.294 342.021 283.533 342.778C281.771 343.536 279.621 343.914 277.084 343.914ZM278.106 337.892C280.758 337.892 282.993 337.371 284.811 336.33C286.648 335.288 288.031 333.942 288.959 332.294C289.906 330.647 290.379 328.914 290.379 327.096V320.96C290.095 321.301 289.47 321.614 288.504 321.898C287.557 322.163 286.459 322.399 285.209 322.607C283.978 322.796 282.775 322.968 281.601 323.119C280.445 323.252 279.508 323.366 278.788 323.46C277.046 323.687 275.417 324.057 273.902 324.568C272.406 325.061 271.193 325.809 270.265 326.812C269.356 327.797 268.902 329.141 268.902 330.846C268.902 333.175 269.764 334.936 271.487 336.13C273.229 337.304 275.436 337.892 278.106 337.892Z" fill="black"></path><path d="M251.962 284.707V342.889H245.258V284.707H251.962Z" fill="black"></path><path d="M196.508 359.255V299.255H202.985V306.188H203.781C204.273 305.429 204.955 304.463 205.826 303.289C206.716 302.096 207.985 301.035 209.633 300.107C211.299 299.16 213.553 298.688 216.394 298.688C220.068 298.688 223.307 299.606 226.11 301.443C228.913 303.28 231.101 305.883 232.673 309.255C234.245 312.626 235.031 316.603 235.031 321.188C235.031 325.808 234.245 329.814 232.673 333.205C231.101 336.576 228.923 339.188 226.138 341.044C223.354 342.882 220.144 343.801 216.508 343.801C213.705 343.801 211.46 343.337 209.775 342.409C208.089 341.462 206.792 340.391 205.883 339.198C204.974 337.986 204.273 336.983 203.781 336.188H203.212V359.255H196.508ZM203.099 321.073C203.099 324.368 203.582 327.276 204.548 329.794C205.513 332.294 206.924 334.256 208.781 335.676C210.637 337.078 212.909 337.778 215.599 337.778C218.402 337.778 220.741 337.04 222.616 335.562C224.51 334.066 225.93 332.058 226.877 329.539C227.843 327.001 228.326 324.179 228.326 321.073C228.326 318.005 227.853 315.241 226.906 312.778C225.978 310.297 224.567 308.337 222.673 306.898C220.798 305.439 218.44 304.71 215.599 304.71C212.871 304.71 210.58 305.402 208.724 306.784C206.868 308.148 205.466 310.061 204.519 312.523C203.572 314.966 203.099 317.815 203.099 321.073Z" fill="black"></path><path d="M185.62 309.028L179.597 310.732C179.219 309.728 178.66 308.754 177.921 307.807C177.202 306.841 176.217 306.044 174.967 305.419C173.717 304.794 172.116 304.482 170.166 304.482C167.495 304.482 165.27 305.098 163.49 306.33C161.728 307.542 160.847 309.085 160.847 310.96C160.847 312.627 161.454 313.943 162.666 314.909C163.878 315.875 165.772 316.679 168.347 317.323L174.825 318.914C178.726 319.861 181.633 321.31 183.546 323.26C185.459 325.192 186.416 327.683 186.416 330.732C186.416 333.232 185.696 335.467 184.257 337.438C182.836 339.406 180.847 340.959 178.291 342.096C175.734 343.232 172.76 343.801 169.37 343.801C164.919 343.801 161.236 342.835 158.319 340.903C155.402 338.972 153.556 336.149 152.779 332.438L159.143 330.846C159.749 333.194 160.895 334.955 162.58 336.13C164.285 337.304 166.51 337.892 169.257 337.892C172.382 337.892 174.863 337.229 176.7 335.903C178.556 334.559 179.484 332.948 179.484 331.073C179.484 329.558 178.954 328.29 177.893 327.267C176.832 326.225 175.204 325.448 173.007 324.938L165.734 323.232C161.738 322.285 158.802 320.818 156.927 318.83C155.071 316.822 154.143 314.312 154.143 311.301C154.143 308.839 154.834 306.661 156.217 304.767C157.618 302.873 159.522 301.386 161.927 300.307C164.351 299.227 167.097 298.688 170.166 298.688C174.484 298.688 177.874 299.634 180.336 301.528C182.817 303.422 184.579 305.922 185.62 309.028Z" fill="black"></path><path d="M114.619 316.642V342.892H107.914V299.255H114.391V306.073H114.96C115.982 303.857 117.535 302.077 119.619 300.732C121.702 299.368 124.391 298.688 127.687 298.688C130.641 298.688 133.227 299.293 135.442 300.505C137.658 301.698 139.382 303.517 140.613 305.96C141.844 308.384 142.46 311.452 142.46 315.164V342.892H135.755V315.619C135.755 312.191 134.865 309.52 133.085 307.607C131.304 305.675 128.861 304.71 125.755 304.71C123.615 304.71 121.702 305.174 120.016 306.102C118.35 307.03 117.033 308.383 116.067 310.164C115.102 311.944 114.619 314.104 114.619 316.642Z" fill="black"></path><path d="M75.677 343.914C72.912 343.914 70.403 343.394 68.149 342.352C65.895 341.292 64.105 339.767 62.78 337.778C61.454 335.771 60.791 333.346 60.791 330.505C60.791 328.005 61.283 325.979 62.268 324.426C63.253 322.854 64.569 321.622 66.217 320.732C67.865 319.842 69.683 319.18 71.672 318.744C73.679 318.29 75.696 317.929 77.723 317.664C80.374 317.323 82.524 317.068 84.172 316.898C85.838 316.708 87.05 316.396 87.808 315.96C88.585 315.525 88.973 314.766 88.973 313.688V313.46C88.973 310.657 88.206 308.479 86.672 306.926C85.157 305.373 82.855 304.596 79.768 304.596C76.568 304.596 74.058 305.296 72.24 306.698C70.422 308.099 69.143 309.597 68.405 311.188L62.041 308.914C63.177 306.262 64.693 304.198 66.586 302.721C68.499 301.224 70.583 300.183 72.836 299.596C75.109 298.99 77.344 298.688 79.541 298.688C80.943 298.688 82.552 298.857 84.371 299.198C86.208 299.52 87.979 300.193 89.683 301.216C91.407 302.239 92.836 303.781 93.973 305.846C95.109 307.91 95.677 310.676 95.677 314.142V342.892H88.973V336.982H88.632C88.177 337.929 87.42 338.943 86.359 340.023C85.299 341.102 83.888 342.021 82.126 342.778C80.365 343.536 78.215 343.914 75.677 343.914ZM76.7 337.892C79.352 337.892 81.586 337.371 83.405 336.33C85.242 335.288 86.624 333.942 87.552 332.294C88.499 330.647 88.973 328.914 88.973 327.096V320.96C88.689 321.301 88.064 321.614 87.098 321.898C86.151 322.163 85.052 322.399 83.802 322.607C82.571 322.796 81.369 322.968 80.194 323.119C79.039 323.252 78.102 323.366 77.382 323.46C75.64 323.687 74.011 324.057 72.496 324.568C70.999 325.061 69.787 325.809 68.859 326.812C67.95 327.797 67.496 329.141 67.496 330.846C67.496 333.175 68.357 334.936 70.081 336.13C71.823 337.304 74.03 337.892 76.7 337.892Z" fill="black"></path><path d="M33.0703 342.892V299.256H39.5483V305.847H40.0023C40.7983 303.688 42.2373 301.936 44.3203 300.591C46.4043 299.247 48.7523 298.574 51.3663 298.574C51.8583 298.574 52.4743 298.584 53.2123 298.603C53.9513 298.622 54.5103 298.65 54.8883 298.688V305.506C54.6613 305.449 54.1403 305.364 53.3263 305.25C52.5313 305.118 51.6883 305.051 50.7983 305.051C48.6763 305.051 46.7823 305.497 45.1163 306.387C43.4683 307.258 42.1613 308.47 41.1953 310.023C40.2483 311.557 39.7753 313.309 39.7753 315.279V342.892H33.0703Z" fill="black"></path><path d="M22.9851 299.255V304.937H0.371094V299.255H22.9851ZM6.9621 288.801H13.6671V330.392C13.6671 332.286 13.9411 333.706 14.4901 334.653C15.0591 335.581 15.7781 336.206 16.6501 336.528C17.5401 336.831 18.4771 336.983 19.4621 336.983C20.2011 336.983 20.8071 336.945 21.2801 336.869C21.7541 336.774 22.1321 336.699 22.4171 336.642L23.7801 342.664C23.3261 342.835 22.6911 343.005 21.8771 343.176C21.0621 343.365 20.0301 343.46 18.7801 343.46C16.8861 343.46 15.0301 343.053 13.2121 342.238C11.4131 341.424 9.9171 340.183 8.7231 338.517C7.5491 336.85 6.9621 334.748 6.9621 332.21V288.801Z" fill="black"></path><path d="M521.273 245.892V202.256H527.751V208.847H528.205C529.001 206.688 530.44 204.936 532.523 203.591C534.607 202.247 536.955 201.574 539.569 201.574C540.061 201.574 540.677 201.584 541.415 201.603C542.154 201.622 542.713 201.65 543.092 201.688V208.506C542.864 208.449 542.344 208.364 541.529 208.25C540.734 208.118 539.891 208.051 539.001 208.051C536.88 208.051 534.986 208.497 533.319 209.387C531.671 210.258 530.364 211.47 529.398 213.023C528.451 214.557 527.978 216.309 527.978 218.279V245.892H521.273Z" fill="black"></path><path d="M502.289 245.891V202.254H508.994V245.891H502.289ZM505.698 194.982C504.392 194.982 503.265 194.536 502.318 193.646C501.39 192.756 500.926 191.686 500.926 190.436C500.926 189.186 501.39 188.116 502.318 187.226C503.265 186.336 504.392 185.891 505.698 185.891C507.005 185.891 508.123 186.336 509.051 187.226C509.998 188.116 510.471 189.186 510.471 190.436C510.471 191.686 509.998 192.756 509.051 193.646C508.123 194.536 507.005 194.982 505.698 194.982Z" fill="black"></path><path d="M470.052 246.914C467.287 246.914 464.778 246.394 462.524 245.352C460.27 244.292 458.48 242.767 457.155 240.778C455.829 238.771 455.166 236.346 455.166 233.505C455.166 231.005 455.658 228.979 456.643 227.426C457.628 225.854 458.944 224.622 460.592 223.732C462.24 222.842 464.058 222.18 466.047 221.744C468.054 221.29 470.071 220.929 472.098 220.664C474.749 220.323 476.899 220.068 478.547 219.898C480.213 219.708 481.425 219.396 482.183 218.96C482.96 218.525 483.348 217.767 483.348 216.687V216.46C483.348 213.657 482.581 211.479 481.047 209.926C479.532 208.373 477.23 207.596 474.143 207.596C470.943 207.596 468.433 208.296 466.615 209.698C464.797 211.099 463.518 212.597 462.78 214.187L456.416 211.914C457.552 209.262 459.068 207.198 460.961 205.721C462.874 204.224 464.958 203.183 467.211 202.596C469.484 201.99 471.719 201.688 473.916 201.688C475.318 201.688 476.927 201.857 478.746 202.198C480.583 202.52 482.354 203.193 484.058 204.216C485.782 205.239 487.211 206.781 488.348 208.846C489.484 210.91 490.052 213.676 490.052 217.142V245.892H483.348V239.982H483.007C482.552 240.929 481.795 241.943 480.734 243.023C479.674 244.102 478.263 245.021 476.501 245.778C474.74 246.536 472.59 246.914 470.052 246.914ZM471.075 240.892C473.727 240.892 475.961 240.371 477.78 239.33C479.617 238.288 480.999 236.942 481.927 235.294C482.874 233.647 483.348 231.914 483.348 230.096V223.96C483.064 224.301 482.439 224.614 481.473 224.898C480.526 225.163 479.427 225.399 478.177 225.607C476.946 225.796 475.744 225.968 474.569 226.119C473.414 226.252 472.477 226.366 471.757 226.46C470.015 226.687 468.386 227.057 466.871 227.568C465.374 228.061 464.162 228.809 463.234 229.812C462.325 230.797 461.871 232.141 461.871 233.846C461.871 236.175 462.732 237.937 464.456 239.13C466.198 240.304 468.405 240.892 471.075 240.892Z" fill="black"></path><path d="M416.65 219.639V245.889H409.945V187.707H416.65V209.071H417.218C418.241 206.817 419.775 205.027 421.82 203.701C423.885 202.357 426.631 201.684 430.059 201.684C433.032 201.684 435.637 202.281 437.871 203.474C440.106 204.648 441.839 206.457 443.07 208.9C444.32 211.324 444.945 214.412 444.945 218.162V245.889H438.241V218.616C438.241 215.15 437.341 212.47 435.542 210.576C433.762 208.663 431.29 207.707 428.127 207.707C425.93 207.707 423.96 208.171 422.218 209.099C420.495 210.027 419.131 211.381 418.127 213.162C417.142 214.942 416.65 217.101 416.65 219.639Z" fill="black"></path><path d="M375.165 187.707V245.889H368.461V187.707H375.165Z" fill="black"></path><path d="M336.224 246.914C333.459 246.914 330.95 246.394 328.696 245.352C326.442 244.292 324.652 242.767 323.327 240.778C322.001 238.771 321.338 236.346 321.338 233.505C321.338 231.005 321.83 228.979 322.815 227.426C323.8 225.854 325.116 224.622 326.764 223.732C328.412 222.842 330.23 222.18 332.219 221.744C334.226 221.29 336.243 220.929 338.27 220.664C340.921 220.323 343.071 220.068 344.719 219.898C346.385 219.708 347.597 219.396 348.355 218.96C349.131 218.525 349.52 217.767 349.52 216.687V216.46C349.52 213.657 348.753 211.479 347.219 209.926C345.703 208.373 343.402 207.596 340.315 207.596C337.114 207.596 334.605 208.296 332.787 209.698C330.969 211.099 329.69 212.597 328.952 214.187L322.588 211.914C323.724 209.262 325.239 207.198 327.133 205.721C329.046 204.224 331.13 203.183 333.383 202.596C335.656 201.99 337.891 201.688 340.088 201.688C341.489 201.688 343.099 201.857 344.917 202.198C346.755 202.52 348.525 203.193 350.23 204.216C351.953 205.239 353.383 206.781 354.52 208.846C355.656 210.91 356.224 213.676 356.224 217.142V245.892H349.52V239.982H349.179C348.724 240.929 347.967 241.943 346.906 243.023C345.845 244.102 344.434 245.021 342.673 245.778C340.912 246.536 338.762 246.914 336.224 246.914ZM337.247 240.892C339.898 240.892 342.133 240.371 343.952 239.33C345.789 238.288 347.171 236.942 348.099 235.294C349.046 233.647 349.52 231.914 349.52 230.096V223.96C349.236 224.301 348.611 224.614 347.645 224.898C346.698 225.163 345.599 225.399 344.349 225.607C343.118 225.796 341.916 225.968 340.741 226.119C339.586 226.252 338.648 226.366 337.929 226.46C336.186 226.687 334.558 227.057 333.042 227.568C331.546 228.061 330.334 228.809 329.406 229.812C328.497 230.797 328.042 232.141 328.042 233.846C328.042 236.175 328.904 237.937 330.628 239.13C332.37 240.304 334.577 240.892 337.247 240.892Z" fill="black"></path><path d="M296.423 246.801C292.332 246.801 288.809 245.835 285.855 243.903C282.9 241.972 280.628 239.31 279.037 235.919C277.446 232.529 276.65 228.657 276.65 224.301C276.65 219.869 277.465 215.958 279.094 212.568C280.741 209.159 283.033 206.498 285.969 204.585C288.923 202.653 292.37 201.688 296.309 201.688C299.378 201.688 302.143 202.256 304.605 203.392C307.067 204.528 309.084 206.118 310.656 208.164C312.228 210.209 313.203 212.596 313.582 215.323H306.878C306.366 213.334 305.23 211.573 303.469 210.039C301.726 208.486 299.378 207.71 296.423 207.71C293.809 207.71 291.518 208.391 289.548 209.755C287.597 211.099 286.073 213.004 284.974 215.466C283.895 217.909 283.355 220.777 283.355 224.073C283.355 227.444 283.885 230.38 284.946 232.88C286.025 235.38 287.541 237.322 289.491 238.705C291.461 240.087 293.772 240.778 296.423 240.778C298.166 240.778 299.747 240.475 301.167 239.869C302.588 239.263 303.791 238.391 304.775 237.255C305.76 236.118 306.461 234.755 306.878 233.164H313.582C313.203 235.74 312.266 238.061 310.77 240.125C309.292 242.17 307.332 243.798 304.889 245.01C302.465 246.204 299.643 246.801 296.423 246.801Z" fill="black"></path><path d="M259.711 245.891V202.254H266.416V245.891H259.711ZM263.12 194.982C261.814 194.982 260.687 194.536 259.74 193.646C258.812 192.756 258.348 191.686 258.348 190.436C258.348 189.186 258.812 188.116 259.74 187.226C260.687 186.336 261.814 185.891 263.12 185.891C264.427 185.891 265.545 186.336 266.473 187.226C267.42 188.116 267.893 189.186 267.893 190.436C267.893 191.686 267.42 192.756 266.473 193.646C265.545 194.536 264.427 194.982 263.12 194.982Z" fill="black"></path><path d="M228.575 263.164C225.336 263.164 222.552 262.747 220.223 261.914C217.893 261.099 215.952 260.021 214.399 258.676C212.865 257.35 211.643 255.929 210.734 254.414L216.075 250.664C216.681 251.459 217.448 252.369 218.376 253.392C219.304 254.434 220.573 255.333 222.183 256.091C223.812 256.867 225.943 257.255 228.575 257.255C232.098 257.255 235.005 256.402 237.297 254.698C239.588 252.993 240.734 250.323 240.734 246.688V237.823H240.166C239.674 238.618 238.973 239.604 238.064 240.778C237.174 241.934 235.886 242.966 234.2 243.875C232.533 244.765 230.28 245.21 227.439 245.21C223.916 245.21 220.753 244.377 217.95 242.71C215.166 241.044 212.96 238.618 211.331 235.438C209.721 232.256 208.916 228.391 208.916 223.846C208.916 219.376 209.702 215.484 211.274 212.169C212.846 208.836 215.033 206.261 217.836 204.443C220.64 202.606 223.878 201.688 227.552 201.688C230.393 201.688 232.647 202.16 234.314 203.107C235.999 204.035 237.287 205.096 238.177 206.289C239.086 207.463 239.787 208.43 240.28 209.187H240.961V202.255H247.439V247.142C247.439 250.892 246.586 253.94 244.882 256.289C243.196 258.656 240.924 260.39 238.064 261.489C235.223 262.606 232.06 263.164 228.575 263.164ZM228.348 239.188C231.037 239.188 233.31 238.572 235.166 237.341C237.022 236.11 238.433 234.339 239.399 232.028C240.365 229.718 240.848 226.952 240.848 223.732C240.848 220.588 240.374 217.814 239.427 215.409C238.48 213.004 237.079 211.118 235.223 209.755C233.367 208.391 231.075 207.71 228.348 207.71C225.507 207.71 223.139 208.43 221.246 209.869C219.371 211.309 217.96 213.24 217.013 215.664C216.085 218.088 215.621 220.777 215.621 223.732C215.621 226.762 216.094 229.443 217.041 231.773C218.007 234.083 219.427 235.902 221.302 237.227C223.196 238.534 225.545 239.188 228.348 239.188Z" fill="black"></path><path d="M180.954 246.801C177.015 246.801 173.559 245.864 170.585 243.989C167.631 242.114 165.32 239.491 163.653 236.119C162.006 232.748 161.182 228.809 161.182 224.301C161.182 219.756 162.006 215.788 163.653 212.398C165.32 209.008 167.631 206.375 170.585 204.5C173.559 202.625 177.015 201.688 180.954 201.688C184.894 201.688 188.341 202.625 191.295 204.5C194.269 206.375 196.579 209.008 198.227 212.398C199.894 215.788 200.727 219.756 200.727 224.301C200.727 228.809 199.894 232.748 198.227 236.119C196.579 239.491 194.269 242.114 191.295 243.989C188.341 245.864 184.894 246.801 180.954 246.801ZM180.954 240.778C183.947 240.778 186.409 240.011 188.341 238.477C190.273 236.943 191.702 234.926 192.631 232.426C193.559 229.926 194.023 227.218 194.023 224.301C194.023 221.384 193.559 218.667 192.631 216.148C191.702 213.629 190.273 211.592 188.341 210.039C186.409 208.486 183.947 207.71 180.954 207.71C177.962 207.71 175.5 208.486 173.568 210.039C171.636 211.592 170.206 213.629 169.278 216.148C168.35 218.667 167.886 221.384 167.886 224.301C167.886 227.218 168.35 229.926 169.278 232.426C170.206 234.926 171.636 236.943 173.568 238.477C175.5 240.011 177.962 240.778 180.954 240.778Z" fill="black"></path><path d="M150.947 187.707V245.889H144.242V187.707H150.947Z" fill="black"></path><path d="M114.236 246.801C110.296 246.801 106.84 245.864 103.866 243.989C100.912 242.114 98.6009 239.491 96.9339 236.119C95.2869 232.748 94.4629 228.809 94.4629 224.301C94.4629 219.756 95.2869 215.788 96.9339 212.398C98.6009 209.008 100.912 206.375 103.866 204.5C106.84 202.625 110.296 201.688 114.236 201.688C118.175 201.688 121.622 202.625 124.577 204.5C127.55 206.375 129.861 209.008 131.508 212.398C133.175 215.788 134.008 219.756 134.008 224.301C134.008 228.809 133.175 232.748 131.508 236.119C129.861 239.491 127.55 242.114 124.577 243.989C121.622 245.864 118.175 246.801 114.236 246.801ZM114.236 240.778C117.228 240.778 119.69 240.011 121.622 238.477C123.554 236.943 124.984 234.926 125.912 232.426C126.84 229.926 127.304 227.218 127.304 224.301C127.304 221.384 126.84 218.667 125.912 216.148C124.984 213.629 123.554 211.592 121.622 210.039C119.69 208.486 117.228 207.71 114.236 207.71C111.243 207.71 108.781 208.486 106.849 210.039C104.917 211.592 103.488 213.629 102.559 216.148C101.631 218.667 101.167 221.384 101.167 224.301C101.167 227.218 101.631 229.926 102.559 232.426C103.488 234.926 104.917 236.943 106.849 238.477C108.781 240.011 111.243 240.778 114.236 240.778Z" fill="black"></path><path d="M69.5484 246.801C65.4574 246.801 61.9344 245.835 58.9804 243.903C56.0254 241.972 53.7534 239.31 52.1624 235.919C50.5714 232.529 49.7754 228.657 49.7754 224.301C49.7754 219.869 50.5904 215.958 52.2194 212.568C53.8664 209.159 56.1584 206.498 59.0944 204.585C62.0484 202.653 65.4954 201.688 69.4344 201.688C72.5034 201.688 75.2684 202.256 77.7304 203.392C80.1924 204.528 82.2094 206.118 83.7814 208.164C85.3534 210.209 86.3284 212.596 86.7074 215.323H80.0034C79.4914 213.334 78.3554 211.573 76.5944 210.039C74.8514 208.486 72.5034 207.71 69.5484 207.71C66.9344 207.71 64.6434 208.391 62.6734 209.755C60.7224 211.099 59.1984 213.004 58.0994 215.466C57.0204 217.909 56.4804 220.777 56.4804 224.073C56.4804 227.444 57.0104 230.38 58.0714 232.88C59.1504 235.38 60.6664 237.322 62.6164 238.705C64.5864 240.087 66.8974 240.778 69.5484 240.778C71.2914 240.778 72.8724 240.475 74.2924 239.869C75.7134 239.263 76.9164 238.391 77.9004 237.255C78.8854 236.118 79.5864 234.755 80.0034 233.164H86.7074C86.3284 235.74 85.3914 238.061 83.8954 240.125C82.4174 242.17 80.4574 243.798 78.0144 245.01C75.5904 246.204 72.7684 246.801 69.5484 246.801Z" fill="black"></path><path d="M4.91602 245.889V187.707H40.03V193.957H11.961V213.616H38.211V219.866H11.961V239.639H40.484V245.889H4.91602Z" fill="black"></path></svg> 