<svg width="1603" height="301" viewBox="0 0 1603 301" fill="none" xmlns="http://www.w3.org/2000/svg">
<path fill-rule="evenodd" clip-rule="evenodd" d="M307.337 0H0V300.582H307.337V0ZM284.133 63.4466C270.88 80.4794 253.801 97.9316 231.923 113.952C185.773 147.747 118.968 174.663 23.2033 178.417V277.153H284.133V63.4466ZM23.2033 154.968C114.452 151.242 176.44 125.64 218.302 94.9849C249.623 72.0482 270.063 45.9986 283.111 23.4302H23.2033V154.968Z" fill="#743EC8"/>
<path d="M1475.82 217.337V96.4331L1486.42 107.407H1448.29V87.1329H1500V217.337H1475.82Z" fill="#743EC8"/>
<path d="M1345.05 217.336V201.153L1396.76 152.048C1401.1 147.956 1404.33 144.36 1406.43 141.26C1408.54 138.16 1409.91 135.307 1410.53 132.703C1411.27 129.975 1411.64 127.433 1411.64 125.077C1411.64 119.125 1409.6 114.537 1405.5 111.313C1401.41 107.965 1395.4 106.291 1387.46 106.291C1381.14 106.291 1375.37 107.407 1370.16 109.639C1365.08 111.871 1360.68 115.281 1356.96 119.869L1340.03 106.849C1345.11 100.028 1351.93 94.7583 1360.49 91.0382C1369.17 87.1941 1378.84 85.272 1389.51 85.272C1398.93 85.272 1407.12 86.8221 1414.06 89.9221C1421.13 92.8982 1426.52 97.1764 1430.24 102.757C1434.09 108.337 1436.01 114.971 1436.01 122.659C1436.01 126.875 1435.45 131.091 1434.33 135.307C1433.22 139.4 1431.11 143.74 1428.01 148.328C1424.91 152.916 1420.38 158.062 1414.43 163.766L1369.98 205.989L1364.95 196.875H1441.03V217.336H1345.05Z" fill="#743EC8"/>
<path d="M1223.5 220.87L1178.67 118.009H1202.85L1234.18 191.7L1239.31 203.757L1223.5 220.87Z" fill="#743EC8"/>
<path d="M1287.86 118.009H1265.54L1234.18 191.7L1239.31 203.757L1240.76 219.012L1243.92 219.416L1287.86 118.009Z" fill="#743EC8"/>
<path d="M1126.22 116.895C1134.16 116.895 1141.17 118.445 1147.24 121.545C1153.44 124.645 1158.28 129.419 1161.75 135.867C1165.22 142.191 1166.96 150.376 1166.96 160.42V217.337H1143.71V163.396C1143.71 154.592 1141.79 148.019 1137.94 143.679C1134.1 139.339 1128.58 137.169 1121.39 137.169C1116.3 137.169 1111.78 138.285 1107.81 140.517C1103.97 142.749 1100.93 146.035 1098.7 150.376C1096.59 154.716 1095.53 160.234 1095.53 166.93V217.337H1072.28V163.396C1072.28 154.592 1070.36 148.019 1066.52 143.679C1062.67 139.339 1057.15 137.169 1049.96 137.169C1044.88 137.169 1040.35 138.285 1036.38 140.517C1032.54 142.749 1029.5 146.035 1027.27 150.376C1025.16 154.716 1024.11 160.234 1024.11 166.93V217.337H1000.86V118.011H1022.99V144.423L1019.08 136.611C1022.43 130.163 1027.27 125.265 1033.59 121.917C1040.04 118.569 1047.36 116.895 1055.54 116.895C1064.84 116.895 1072.9 119.189 1079.72 123.777C1086.67 128.365 1091.26 135.309 1093.49 144.609L1084.37 141.447C1087.6 134.007 1092.93 128.055 1100.37 123.591C1107.81 119.127 1116.43 116.895 1126.22 116.895Z" fill="#743EC8"/>
<path d="M931.833 218.639C920.797 218.639 911.125 216.469 902.817 212.129C894.632 207.665 888.246 201.589 883.658 193.901C879.194 186.213 876.962 177.47 876.962 167.674C876.962 157.754 879.132 149.011 883.472 141.447C887.936 133.759 894.012 127.745 901.701 123.405C909.513 119.065 918.379 116.895 928.299 116.895C937.972 116.895 946.59 119.003 954.154 123.219C961.718 127.435 967.67 133.387 972.011 141.075C976.351 148.763 978.521 157.816 978.521 168.232C978.521 169.224 978.459 170.34 978.335 171.58C978.335 172.82 978.273 173.998 978.149 175.114H895.376V159.676H965.872L956.758 164.512C956.882 158.808 955.704 153.786 953.224 149.445C950.744 145.105 947.334 141.695 942.994 139.215C938.778 136.735 933.88 135.495 928.299 135.495C922.595 135.495 917.573 136.735 913.233 139.215C909.017 141.695 905.669 145.167 903.189 149.631C900.833 153.972 899.654 159.118 899.654 165.07V168.79C899.654 174.742 901.019 180.012 903.747 184.6C906.475 189.189 910.319 192.723 915.279 195.203C920.239 197.683 925.943 198.923 932.391 198.923C937.972 198.923 942.994 198.055 947.458 196.319C951.922 194.583 955.89 191.855 959.362 188.135L971.825 202.457C967.361 207.665 961.718 211.695 954.898 214.547C948.202 217.275 940.514 218.639 931.833 218.639Z" fill="#743EC8"/>
<path d="M799.486 218.64C789.938 218.64 781.32 216.532 773.632 212.316C766.067 207.976 760.115 202.024 755.775 194.459C751.435 186.895 749.265 177.967 749.265 167.675C749.265 157.382 751.435 148.454 755.775 140.89C760.115 133.326 766.067 127.435 773.632 123.219C781.32 119.003 789.938 116.895 799.486 116.895C807.795 116.895 815.235 118.755 821.807 122.475C828.379 126.071 833.587 131.59 837.431 139.03C841.276 146.47 843.198 156.018 843.198 167.675C843.198 179.207 841.337 188.755 837.617 196.319C833.897 203.76 828.751 209.34 822.179 213.06C815.607 216.78 808.043 218.64 799.486 218.64ZM802.276 198.738C807.857 198.738 812.817 197.497 817.157 195.017C821.621 192.537 825.155 188.941 827.759 184.229C830.487 179.517 831.851 173.999 831.851 167.675C831.851 161.226 830.487 155.708 827.759 151.12C825.155 146.408 821.621 142.812 817.157 140.332C812.817 137.852 807.857 136.612 802.276 136.612C796.696 136.612 791.674 137.852 787.21 140.332C782.87 142.812 779.336 146.408 776.608 151.12C774.004 155.708 772.702 161.226 772.702 167.675C772.702 173.999 774.004 179.517 776.608 184.229C779.336 188.941 782.87 192.537 787.21 195.017C791.674 197.497 796.696 198.738 802.276 198.738ZM832.409 217.338V193.901L833.339 167.489L831.479 141.076V79.3221H854.544V217.338H832.409Z" fill="#743EC8"/>
<path d="M705.482 217.337V197.249L704.18 192.971V157.816C704.18 150.996 702.133 145.725 698.041 142.005C693.949 138.161 687.749 136.239 679.441 136.239C673.861 136.239 668.343 137.107 662.886 138.843C657.554 140.579 653.028 142.997 649.308 146.097L640.194 129.171C645.526 125.079 651.85 122.041 659.166 120.057C666.606 117.949 674.295 116.895 682.231 116.895C696.615 116.895 707.714 120.367 715.526 127.311C723.462 134.131 727.43 144.733 727.43 159.118V217.337H705.482ZM674.233 218.639C666.793 218.639 660.282 217.399 654.702 214.919C649.122 212.315 644.782 208.781 641.682 204.317C638.706 199.729 637.218 194.583 637.218 188.879C637.218 183.298 638.52 178.276 641.124 173.812C643.852 169.348 648.254 165.814 654.33 163.21C660.406 160.606 668.467 159.304 678.511 159.304H707.342V174.742H680.185C672.249 174.742 666.916 176.044 664.188 178.648C661.46 181.128 660.096 184.228 660.096 187.949C660.096 192.165 661.77 195.513 665.118 197.993C668.467 200.473 673.117 201.713 679.069 201.713C684.773 201.713 689.857 200.411 694.321 197.807C698.909 195.203 702.196 191.359 704.18 186.275L708.086 200.225C705.854 206.053 701.823 210.579 695.995 213.803C690.291 217.027 683.037 218.639 674.233 218.639Z" fill="#743EC8"/>
<path d="M381.61 217.337L440.201 87.1329H464.01L522.788 217.337H497.491L447.084 99.9672H456.756L406.534 217.337H381.61ZM408.58 187.204L415.091 168.231H485.401L491.911 187.204H408.58Z" fill="#743EC8"/>
<path d="M1238.66 181.274L1256.95 189.155L1229.33 253.25L1207.65 253.237L1238.66 181.274Z" fill="#743EC8"/>
<path d="M581.776 218.64C571.36 218.64 562.059 216.47 553.875 212.13C545.815 207.666 539.491 201.59 534.902 193.901C530.314 186.213 528.02 177.471 528.02 167.675C528.02 157.754 530.314 149.012 534.902 141.448C539.491 133.76 545.815 127.745 553.875 123.405C562.059 119.065 571.36 116.895 581.776 116.895C591.448 116.895 599.942 118.879 607.258 122.847C610.377 124.458 613.179 126.396 615.665 128.66C615.688 128.681 615.71 128.701 615.732 128.722C619.149 131.848 621.966 135.594 624.185 139.96L606.328 150.376C603.352 145.664 599.694 142.192 595.354 139.96C591.138 137.728 586.55 136.612 581.59 136.612C575.886 136.612 570.739 137.852 566.151 140.332C561.563 142.812 557.967 146.408 555.363 151.12C552.759 155.708 551.457 161.226 551.457 167.675C551.457 174.123 552.759 179.703 555.363 184.415C557.967 189.003 561.563 192.537 566.151 195.017C570.739 197.497 575.886 198.738 581.59 198.738C586.55 198.738 591.138 197.621 595.354 195.389C599.694 193.157 603.352 189.685 606.328 184.973L624.185 195.389C620.341 202.83 614.699 208.596 607.258 212.688C599.942 216.656 591.448 218.64 581.776 218.64Z" fill="#743EC8"/>
<path d="M598.135 119.107C601.356 120.052 604.398 121.296 607.258 122.847C610.377 124.458 613.179 126.396 615.665 128.66C615.674 128.668 615.682 128.678 615.691 128.686L606.354 150.358L606.342 150.366L606.229 150.225L605.179 148.667C604.059 147.1 602.844 145.698 601.55 144.445L592.202 132.884L598.135 119.107Z" fill="#743EC8"/>
<path d="M622.488 112.907C620.167 111.196 617.713 109.667 615.138 108.317L615.142 108.313C611.79 106.496 608.305 105.016 604.711 103.841L611.945 87.0528H633.629L622.488 112.907Z" fill="#743EC8"/>
<path d="M1564.66 93.7626V67.5553H1576.59C1578.13 67.5553 1579.53 67.8867 1580.78 68.5496C1582.04 69.1888 1583.02 70.1121 1583.73 71.3195C1584.46 72.5032 1584.83 73.9118 1584.83 75.5453C1584.83 77.2025 1584.46 78.6585 1583.73 79.9132C1583 81.1443 1581.99 82.1149 1580.71 82.8251C1579.46 83.5117 1578.04 83.855 1576.45 83.855H1566.58V80.9075H1575.81C1577.44 80.9075 1578.75 80.4341 1579.72 79.4871C1580.71 78.5401 1581.21 77.2262 1581.21 75.5453C1581.21 73.8408 1580.71 72.5742 1579.72 71.7456C1578.75 70.917 1577.46 70.5027 1575.85 70.5027H1568.11V93.7626H1564.66ZM1579.43 81.7953L1585.9 93.7626H1582.06L1575.7 81.7953H1579.43ZM1574 109.388C1570.07 109.388 1566.39 108.654 1562.96 107.186C1559.52 105.718 1556.51 103.682 1553.9 101.078C1551.3 98.4738 1549.26 95.4554 1547.79 92.0226C1546.33 88.5898 1545.59 84.9085 1545.59 80.9786C1545.59 77.0486 1546.33 73.3673 1547.79 69.9345C1549.26 66.5018 1551.3 63.4833 1553.9 60.8791C1556.51 58.275 1559.52 56.239 1562.96 54.7712C1566.39 53.3034 1570.07 52.5695 1574 52.5695C1577.93 52.5695 1581.61 53.3034 1585.04 54.7712C1588.48 56.239 1591.5 58.275 1594.1 60.8791C1596.7 63.4833 1598.74 66.5018 1600.21 69.9345C1601.68 73.3673 1602.41 77.0486 1602.41 80.9786C1602.41 84.9085 1601.68 88.5898 1600.21 92.0226C1598.74 95.4554 1596.7 98.4738 1594.1 101.078C1591.5 103.682 1588.48 105.718 1585.04 107.186C1581.61 108.654 1577.93 109.388 1574 109.388ZM1574 105.588C1578.55 105.588 1582.68 104.487 1586.39 102.285C1590.13 100.084 1593.11 97.1244 1595.31 93.4075C1597.51 89.667 1598.61 85.524 1598.61 80.9786C1598.61 76.4331 1597.5 72.3019 1595.27 68.5851C1593.07 64.8682 1590.11 61.909 1586.39 59.7073C1582.68 57.4819 1578.55 56.3692 1574 56.3692C1569.45 56.3692 1565.31 57.47 1561.57 59.6717C1557.85 61.8734 1554.9 64.8446 1552.69 68.5851C1550.49 72.3019 1549.39 76.4331 1549.39 80.9786C1549.39 85.5003 1550.49 89.6315 1552.69 93.372C1554.9 97.1126 1557.85 100.084 1561.57 102.285C1565.31 104.487 1569.45 105.588 1574 105.588Z" fill="#743EC8"/>
</svg>
